<svg width="682" height="114" viewBox="0 0 682 114" fill="none" xmlns="http://www.w3.org/2000/svg">
<g clip-path="url(#clip0_1_34)">
<path d="M58.31 34.37C73.21 35.7033 80.66 41.2467 80.66 51C80.66 56.94 78.02 61.6067 72.74 65C67.46 68.3933 59.5767 70.1067 49.09 70.14H0V0H49.09C57.91 0 64.88 1.73667 70 5.21C75.12 8.68333 77.6767 13.2267 77.67 18.84C77.6567 27.6133 71.2033 32.79 58.31 34.37ZM20.84 16V27.15H48.09C50.3294 27.274 52.5574 26.7535 54.51 25.65C55.2224 25.2294 55.8107 24.6274 56.2147 23.9054C56.6187 23.1834 56.8241 22.3672 56.81 21.54C56.81 17.8733 53.9033 16.0367 48.09 16.03L20.84 16ZM47 54.1C51.6067 54.1 54.8967 53.6667 56.87 52.8C57.7847 52.465 58.5687 51.8471 59.1082 51.036C59.6477 50.225 59.9145 49.2631 59.87 48.29C59.9304 47.3134 59.6818 46.3425 59.1595 45.5151C58.6372 44.6876 57.8676 44.0456 56.96 43.68C55 42.82 52 42.38 48 42.38H20.84V54.1H47Z" fill="#F5F5F5"/>
<path d="M88.79 70.14V0H160.23V16.23H109.63V26.85H149.11V42.08H109.63V53.9H162.13V70.14H88.79Z" fill="#F5F5F5"/>
<path d="M231.76 0H252.6V70.14H231.76V43H191.48V70.14H170.64V0H191.48V26H231.76V0Z" fill="#F5F5F5"/>
<path d="M346.16 46.74H322.61V69.97H346.16V46.74Z" fill="#F5F5F5"/>
<path d="M322.61 0H316.27L284 55.41V0H263.67V70.14H295.73L322.61 23.97V23.91H346.16V0H322.61Z" fill="#F5F5F5"/>
<path d="M506.22 70V0H577.49V16.19H527V26.79H566.38V42H527V53.8H579.37V70H506.22Z" fill="#0079D1"/>
<path d="M392.58 46.74H369.03V69.97H392.58V46.74Z" fill="#0079D1"/>
<path d="M495.5 69.97V0L464.01 0.27L431.6 55.84L399.19 0.27L369.04 0V23.91H392.73L419.44 69.97H431.6H443.76L475.32 15.47V69.97H495.5Z" fill="#0079D1"/>
<path d="M681.2 70V53.78H671.94V0H605C604.527 16.7333 603.527 29.0833 602 37.05C600.44 45.05 598.43 51.25 596 53.78H587.74V70H681.2ZM620 40.54C621.85 32.7794 623.084 24.8849 623.69 16.93H651.28V53.78H615.67C617.13 51.12 618.56 46.05 620 40.54Z" fill="#0079D1"/>
<path d="M53.93 107.83C53.0741 107.102 52.3865 106.198 51.915 105.178C51.4435 104.158 51.1993 103.048 51.1993 101.925C51.1993 100.802 51.4435 99.6917 51.915 98.6721C52.3865 97.6525 53.0741 96.7475 53.93 96.02C55.75 94.6 58.28 93.89 61.52 93.89C64.76 93.89 67.2933 94.5933 69.12 96C69.9759 96.7275 70.6635 97.6325 71.135 98.6521C71.6065 99.6717 71.8507 100.782 71.8507 101.905C71.8507 103.028 71.6065 104.138 71.135 105.158C70.6635 106.178 69.9759 107.082 69.12 107.81C67.3 109.27 64.7667 110 61.52 110C58.2733 110 55.7433 109.277 53.93 107.83ZM57.32 98.83C56.8528 99.2048 56.4758 99.6797 56.2167 100.22C55.9576 100.76 55.8231 101.351 55.8231 101.95C55.8231 102.549 55.9576 103.14 56.2167 103.68C56.4758 104.22 56.8528 104.695 57.32 105.07C58.5497 105.919 60.0285 106.331 61.52 106.24C63.0228 106.312 64.506 105.875 65.73 105C66.1972 104.625 66.5742 104.15 66.8333 103.61C67.0924 103.07 67.2269 102.479 67.2269 101.88C67.2269 101.281 67.0924 100.69 66.8333 100.15C66.5742 99.6097 66.1972 99.1348 65.73 98.76C64.4936 97.9182 63.013 97.5103 61.52 97.6C60.0256 97.5227 58.548 97.9449 57.32 98.8V98.83Z" fill="#F5F5F5"/>
<path d="M96.09 104L100.58 104.23C100.459 105.11 100.144 105.952 99.6584 106.696C99.1725 107.44 98.5275 108.066 97.77 108.53C95.8119 109.607 93.5919 110.116 91.36 110C88.14 110 85.63 109.29 83.86 107.88C83.0241 107.135 82.354 106.222 81.8929 105.202C81.4319 104.181 81.1903 103.075 81.1837 101.956C81.1771 100.836 81.4057 99.727 81.8546 98.7011C82.3036 97.6752 82.9629 96.755 83.79 96C85.52 94.58 87.95 93.88 91.07 93.88C93.2458 93.7853 95.4053 94.294 97.31 95.35C98.0552 95.7694 98.7022 96.3433 99.2075 97.0332C99.7129 97.7231 100.065 98.513 100.24 99.35L95.8 99.64C95.6337 99.2978 95.4015 98.9917 95.1166 98.7395C94.8317 98.4872 94.4998 98.2937 94.14 98.17C93.1647 97.78 92.1201 97.5928 91.07 97.62C89.6765 97.5309 88.2971 97.9422 87.18 98.78C86.731 99.163 86.3745 99.6426 86.1372 100.183C85.9 100.723 85.7881 101.31 85.81 101.9C85.7869 102.497 85.9042 103.092 86.1526 103.635C86.401 104.179 86.7734 104.657 87.24 105.03C88.4409 105.875 89.8946 106.284 91.36 106.19C92.4408 106.232 93.5164 106.02 94.5 105.57C95.2067 105.263 95.7736 104.703 96.09 104V104Z" fill="#F5F5F5"/>
<path d="M124.09 94.15H128.71V109.69H124.09V103.69H115.16V109.69H110.55V94.15H115.16V99.9H124.09V94.15Z" fill="#F5F5F5"/>
<path d="M154.24 109.69L152.97 106.69H143.97L142.71 109.69H138.16L145 94.15H152.11L158.94 109.69H154.24ZM145.49 103.23H151.49L148.49 96.13L145.49 103.23Z" fill="#F5F5F5"/>
<path d="M168.43 109.69V94.15H172.93V105.92H179.13V94.15H183.63V105.92H189.83V94.15H194.34V105.92H196.42V113.22H192.09V109.69H168.43Z" fill="#F5F5F5"/>
<path d="M206 109.69V94.15H221.83V97.75H210.56V100.1H219.31V103.48H210.56V106.1H222.2V109.69H206Z" fill="#F5F5F5"/>
<path d="M246 94.15H250.62V109.69H246V103.69H237.1V109.69H232.48V94.15H237.1V99.9H246V94.15Z" fill="#F5F5F5"/>
<path d="M273.42 94.15H280.52V109.69H276V97.42L268.85 109.69H261.74V94.15H266.25V106.43L273.42 94.15Z" fill="#F5F5F5"/>
<path d="M291.65 109.69V94.15H307.47V97.75H296.26V100.1H305V103.48H296.25V106.1H307.9V109.69H291.65Z" fill="#F5F5F5"/>
<path d="M334.36 94.15H349.84V109.69H345.22V97.93H338.54C338.54 98.34 338.47 98.93 338.42 99.75C338.35 101.03 338.29 101.99 338.24 102.6C338.19 103.21 338.09 103.99 337.95 104.94C337.871 105.667 337.675 106.376 337.37 107.04C337.084 107.548 336.749 108.027 336.37 108.47C335.969 108.951 335.433 109.3 334.83 109.47C334.116 109.68 333.374 109.778 332.63 109.76C332.04 109.76 331.24 109.76 330.23 109.65V105.9C330.621 105.954 331.015 105.984 331.41 105.99C331.704 105.996 331.996 105.945 332.27 105.84C332.523 105.736 332.744 105.567 332.91 105.35C333.091 105.113 333.248 104.858 333.38 104.59C333.526 104.24 333.634 103.874 333.7 103.5C333.787 103.04 333.857 102.6 333.91 102.18C333.96 101.76 334 101.18 334.04 100.53C334.08 99.88 334.11 99.23 334.13 98.66C334.15 98.09 334.18 97.38 334.22 96.5C334.26 95.62 334.32 94.86 334.36 94.15Z" fill="#F5F5F5"/>
<path d="M375.37 109.69L374.1 106.69H365.1L363.84 109.69H359.29L366.1 94.15H373.21L380.04 109.69H375.37ZM366.62 103.23H372.62L369.62 96.13L366.62 103.23Z" fill="#F5F5F5"/>
<path d="M400.5 99.9C402.143 99.8278 403.769 100.249 405.17 101.11C405.726 101.551 406.175 102.112 406.484 102.751C406.793 103.39 406.953 104.09 406.953 104.8C406.953 105.51 406.793 106.21 406.484 106.849C406.175 107.488 405.726 108.049 405.17 108.49C403.766 109.351 402.135 109.769 400.49 109.69H389.55V94.15H405.27V97.7H394.17V99.9H400.5ZM400.14 106.14C401.61 106.14 402.34 105.68 402.34 104.76C402.34 103.84 401.61 103.41 400.14 103.41H394.14V106.14H400.14Z" fill="#F5F5F5"/>
<path d="M418.75 107.83C417.894 107.102 417.207 106.198 416.735 105.178C416.264 104.158 416.019 103.048 416.019 101.925C416.019 100.802 416.264 99.6917 416.735 98.6721C417.207 97.6525 417.894 96.7475 418.75 96.02C420.57 94.6 423.1 93.89 426.34 93.89C429.58 93.89 432.12 94.6 433.94 96.02C434.796 96.7475 435.483 97.6525 435.955 98.6721C436.426 99.6917 436.671 100.802 436.671 101.925C436.671 103.048 436.426 104.158 435.955 105.178C435.483 106.198 434.796 107.102 433.94 107.83C432.12 109.25 429.58 109.96 426.34 109.96C423.1 109.96 420.57 109.25 418.75 107.83ZM422.14 98.83C421.673 99.2048 421.296 99.6797 421.037 100.22C420.778 100.76 420.643 101.351 420.643 101.95C420.643 102.549 420.778 103.14 421.037 103.68C421.296 104.22 421.673 104.695 422.14 105.07C423.409 105.836 424.863 106.24 426.345 106.24C427.827 106.24 429.281 105.836 430.55 105.07C431.017 104.695 431.394 104.22 431.653 103.68C431.912 103.14 432.047 102.549 432.047 101.95C432.047 101.351 431.912 100.76 431.653 100.22C431.394 99.6797 431.017 99.2048 430.55 98.83C429.279 98.0707 427.826 97.6697 426.345 97.6697C424.864 97.6697 423.411 98.0707 422.14 98.83Z" fill="#F5F5F5"/>
<path d="M457.67 94.15C459.312 94.0842 460.932 94.5392 462.3 95.45C462.912 95.8995 463.401 96.4964 463.721 97.1851C464.041 97.8739 464.181 98.6323 464.13 99.39C464.192 100.125 464.064 100.864 463.757 101.534C463.451 102.205 462.976 102.786 462.38 103.22C460.964 104.078 459.324 104.492 457.67 104.41H451.52V109.69H446.9V94.15H457.67V94.15ZM457.45 100.86C458.82 100.86 459.51 100.37 459.51 99.39C459.51 98.41 458.82 97.93 457.45 97.93H451.52V100.86H457.45Z" fill="#F5F5F5"/>
<path d="M486.64 109.69L485.38 106.69H476.38L475.11 109.69H470.56L477.38 94.15H484.48L491.32 109.69H486.64ZM477.9 103.23H483.9L480.9 96.13L477.9 103.23Z" fill="#F5F5F5"/>
<path d="M497.17 97.93V94.15H514.88V97.93H508.33V109.69H503.72V97.93H497.17Z" fill="#F5F5F5"/>
<path d="M526.21 107.83C525.354 107.102 524.667 106.198 524.195 105.178C523.723 104.158 523.479 103.048 523.479 101.925C523.479 100.802 523.723 99.6917 524.195 98.6721C524.667 97.6525 525.354 96.7475 526.21 96.02C528.03 94.6 530.56 93.89 533.8 93.89C537.04 93.89 539.57 94.5933 541.39 96C542.246 96.7275 542.933 97.6325 543.405 98.6521C543.876 99.6717 544.121 100.782 544.121 101.905C544.121 103.028 543.876 104.138 543.405 105.158C542.933 106.178 542.246 107.082 541.39 107.81C539.57 109.27 537.04 110 533.8 110C530.56 110 528.03 109.277 526.21 107.83ZM529.59 98.83C529.123 99.2048 528.746 99.6797 528.487 100.22C528.228 100.76 528.093 101.351 528.093 101.95C528.093 102.549 528.228 103.14 528.487 103.68C528.746 104.22 529.123 104.695 529.59 105.07C530.861 105.835 532.316 106.24 533.8 106.24C535.284 106.24 536.739 105.835 538.01 105.07C538.477 104.695 538.854 104.22 539.113 103.68C539.372 103.14 539.507 102.549 539.507 101.95C539.507 101.351 539.372 100.76 539.113 100.22C538.854 99.6797 538.477 99.2048 538.01 98.83C536.737 98.0708 535.282 97.6701 533.8 97.6701C532.318 97.6701 530.863 98.0708 529.59 98.83V98.83Z" fill="#F5F5F5"/>
<path d="M565.13 94.15C566.772 94.0856 568.392 94.5405 569.76 95.45C570.372 95.8995 570.861 96.4964 571.181 97.1851C571.501 97.8739 571.641 98.6323 571.59 99.39C571.651 100.126 571.521 100.865 571.213 101.536C570.904 102.207 570.428 102.787 569.83 103.22C568.418 104.078 566.78 104.492 565.13 104.41H559V109.69H554.38V94.15H565.15H565.13ZM564.9 100.86C566.28 100.86 566.97 100.37 566.97 99.39C566.97 98.39 566.28 97.93 564.9 97.93H559V100.86H564.9Z" fill="#F5F5F5"/>
<path d="M593.3 94.15H600.41V109.69H595.9V97.42L588.75 109.69H581.64V94.15H586.15V106.43L593.3 94.15Z" fill="#F5F5F5"/>
<path d="M623.18 94.15H630.29V109.69H625.78V97.42L618.63 109.69H611.53V94.15H616V106.43L623.18 94.15ZM620.92 93C617.587 93 615.877 91.78 615.79 89.34H618.72C618.82 90.21 619.56 90.65 620.92 90.65C622.28 90.65 622.99 90.21 623.09 89.34H626.09C625.957 91.78 624.233 93 620.92 93Z" fill="#F5F5F5"/>
</g>
<defs>
<clipPath id="clip0_1_34">
<rect width="681.2" height="113.22" fill="white"/>
</clipPath>
</defs>
</svg>
